<?xml version="1.0" encoding="UTF-8" standalone="no"?>
<!DOCTYPE svg PUBLIC "-//W3C//DTD SVG 1.1//EN" "http://www.w3.org/Graphics/SVG/1.1/DTD/svg11.dtd">
<svg width="100%" height="100%" viewBox="0 0 288 38" version="1.1" xmlns="http://www.w3.org/2000/svg" xmlns:xlink="http://www.w3.org/1999/xlink" xml:space="preserve" xmlns:serif="http://www.serif.com/" style="fill-rule:evenodd;clip-rule:evenodd;stroke-linejoin:round;stroke-miterlimit:2;">
    <g transform="matrix(1,0,0,1,-668.746,-231.151)">
        <g transform="matrix(1,0,0,1,562.5,0)">
            <g transform="matrix(1,0,0,1,117.844,247.452)">
                <path d="M0,11.037L-3.72,-8.479L-11.598,-8.479L-11.598,19.516L-6.719,19.516L-6.719,-1.32L-2.56,19.516L2.12,19.516L6.279,-1.32L6.279,19.516L11.559,19.516L11.559,-8.479L3.68,-8.479L0,11.037Z" style="fill-rule:nonzero;"/>
            </g>
        </g>
        <g transform="matrix(1,0,0,1,562.5,0)">
            <g transform="matrix(1,0,0,1,135.43,238.973)">
                <path d="M0,27.995L15.237,27.995L15.237,23.116L5.599,23.116L5.599,16.237L13.277,16.237L13.277,11.359L5.599,11.359L5.599,4.879L15.237,4.879L15.237,0L0,0L0,27.995Z" style="fill-rule:nonzero;"/>
            </g>
        </g>
        <g transform="matrix(1,0,0,1,562.5,0)">
            <g transform="matrix(1,0,0,1,165.154,255.211)">
                <path d="M0,-4.48C-3.76,-6.28 -4.839,-6.919 -4.839,-9.079C-4.839,-10.798 -3.84,-11.918 -2.12,-11.918C-0.16,-11.918 0.64,-10.639 0.64,-8.879L0.64,-8.119L5.919,-8.119L5.919,-8.919C5.919,-13.558 3.239,-16.637 -2.16,-16.637C-7.559,-16.637 -10.438,-13.558 -10.438,-8.999C-10.438,-5.08 -9.039,-2.681 -4.239,-0.361C-0.44,1.478 0.52,2.079 0.52,4.478C0.52,6.358 -0.64,7.437 -2.399,7.437C-4.399,7.437 -5.279,6.198 -5.279,4.478L-5.279,3.238L-10.559,3.238L-10.559,4.478C-10.559,9.077 -7.799,12.157 -2.319,12.157C3.159,12.157 6.119,9.077 6.119,4.358C6.119,0.359 4.919,-2.12 0,-4.48" style="fill-rule:nonzero;"/>
            </g>
        </g>
        <g transform="matrix(1,0,0,1,562.5,0)">
            <g transform="matrix(1,0,0,1,173.559,262.089)">
                <path d="M0,-18.237L5.839,-18.237L5.839,4.879L11.438,4.879L11.438,-18.237L17.277,-18.237L17.277,-23.116L0,-23.116L0,-18.237Z" style="fill-rule:nonzero;"/>
            </g>
        </g>
        <g transform="matrix(1,0,0,1,562.5,0)">
            <g transform="matrix(1,0,0,1,194.975,238.973)">
                <path d="M0,27.995L15.237,27.995L15.237,23.116L5.599,23.116L5.599,16.237L13.277,16.237L13.277,11.359L5.599,11.359L5.599,4.879L15.237,4.879L15.237,0L0,0L0,27.995Z" style="fill-rule:nonzero;"/>
            </g>
        </g>
        <g transform="matrix(1,0,0,1,562.5,0)">
            <g transform="matrix(1,0,0,1,226.936,247.452)">
                <path d="M0,11.037L-3.72,-8.479L-11.599,-8.479L-11.599,19.516L-6.72,19.516L-6.72,-1.32L-2.56,19.516L2.119,19.516L6.278,-1.32L6.278,19.516L11.558,19.516L11.558,-8.479L3.679,-8.479L0,11.037Z" style="fill-rule:nonzero;"/>
            </g>
        </g>
        <g transform="matrix(1,0,0,1,562.5,0)">
            <g transform="matrix(1,0,0,1,264.615,250.771)">
                <path d="M0,4.399L-5.599,-11.798L-12.518,-11.798L-12.518,16.197L-7.519,16.197L-7.519,-3.719L-0.64,16.197L4.999,16.197L4.999,-11.798L0,-11.798L0,4.399Z" style="fill-rule:nonzero;"/>
            </g>
        </g>
        <g transform="matrix(1,0,0,1,562.5,0)">
            <g transform="matrix(1,0,0,1,280.648,248.851)">
                <path d="M0,8.239L2.239,-4.279L4.519,8.239L0,8.239ZM-1.32,-9.878L-7.119,18.117L-1.8,18.117L-0.88,13.038L5.398,13.038L6.318,18.117L12.038,18.117L6.238,-9.878L-1.32,-9.878Z" style="fill-rule:nonzero;"/>
            </g>
        </g>
        <g transform="matrix(1,0,0,1,562.5,0)">
            <g transform="matrix(1,0,0,1,323.165,266.968)">
                <path d="M0,-27.995L-5.679,-27.995L-12.678,-16.597L-12.678,-27.995L-18.277,-27.995L-18.277,0L-12.678,0L-12.678,-8.639L-10.398,-12.198L-5.879,0L0.12,0L-6.559,-17.597L0,-27.995Z" style="fill-rule:nonzero;"/>
            </g>
        </g>
        <g transform="matrix(1,0,0,1,562.5,0)">
            <g transform="matrix(1,0,0,1,365.434,266.968)">
                <path d="M0,-27.995L-5.6,-27.995L-5.6,0L9.198,0L9.198,-4.879L0,-4.879L0,-27.995Z" style="fill-rule:nonzero;"/>
            </g>
        </g>
        <g transform="matrix(1,0,0,1,562.5,0)">
            <g transform="matrix(1,0,0,1,393.754,262.089)">
                <path d="M0,-18.237L0,-23.116L-15.238,-23.116L-15.238,4.879L0,4.879L0,0L-9.639,0L-9.639,-6.879L-1.96,-6.879L-1.96,-11.758L-9.639,-11.758L-9.639,-18.237L0,-18.237Z" style="fill-rule:nonzero;"/>
            </g>
        </g>
        <g transform="matrix(1,0,0,1,562.5,0)">
            <g transform="matrix(1,0,0,1,339.819,242.281)">
                <path d="M0,21.378C-5.894,21.378 -10.688,16.583 -10.688,10.69C-10.688,4.795 -5.894,0.001 0,0.001C5.894,0.001 10.688,4.795 10.688,10.69C10.688,16.583 5.894,21.378 0,21.378M0,-5.189C-8.77,-5.189 -15.879,1.92 -15.879,10.69C-15.879,19.459 -8.77,26.567 0,26.567C8.77,26.567 15.878,19.459 15.878,10.69C15.878,1.92 8.77,-5.189 0,-5.189" style="fill-rule:nonzero;"/>
            </g>
        </g>
        <g transform="matrix(1,0,0,1,562.5,0)">
            <g transform="matrix(-1,0,0,1,286.097,-33.698)">
                <rect x="137.39" y="264.849" width="11.317" height="4"/>
            </g>
        </g>
    </g>
</svg>
